<?xml version="1.0" encoding="UTF-8" standalone="no"?>
<!-- Generator: Adobe Illustrator 17.0.0, SVG Export Plug-In . SVG Version: 6.00 Build 0)  -->

<svg
   xmlns:dc="http://purl.org/dc/elements/1.1/"
   xmlns:cc="http://creativecommons.org/ns#"
   xmlns:rdf="http://www.w3.org/1999/02/22-rdf-syntax-ns#"
   xmlns:svg="http://www.w3.org/2000/svg"
   xmlns="http://www.w3.org/2000/svg"
   xmlns:sodipodi="http://sodipodi.sourceforge.net/DTD/sodipodi-0.dtd"
   xmlns:inkscape="http://www.inkscape.org/namespaces/inkscape"
   version="1.1"
   x="0px"
   y="0px"
   width="124.48047"
   height="81.475456"
   viewBox="0 0 124.48047 81.475456"
   enable-background="new 0 0 630 82"
   xml:space="preserve"
   id="svg3336"
   inkscape:version="0.91 r13725"
   sodipodi:docname="SKK.svg"><metadata
     id="metadata3496"><rdf:RDF><cc:Work
         rdf:about=""><dc:format>image/svg+xml</dc:format><dc:type
           rdf:resource="http://purl.org/dc/dcmitype/StillImage" /><dc:title></dc:title></cc:Work></rdf:RDF></metadata><defs
     id="defs3494" /><sodipodi:namedview
     pagecolor="#ffffff"
     bordercolor="#666666"
     borderopacity="1"
     objecttolerance="10"
     gridtolerance="10"
     guidetolerance="10"
     inkscape:pageopacity="0"
     inkscape:pageshadow="2"
     inkscape:window-width="1366"
     inkscape:window-height="705"
     id="namedview3492"
     showgrid="false"
     fit-margin-top="1"
     fit-margin-left="1"
     fit-margin-bottom="1"
     fit-margin-right="1"
     inkscape:zoom="2.0174603"
     inkscape:cx="314.27402"
     inkscape:cy="8.9106304"
     inkscape:window-x="-8"
     inkscape:window-y="-8"
     inkscape:window-maximized="1"
     inkscape:current-layer="svg3336" /><g
     id="Cross_Posting"
     transform="translate(-0.72597584,-0.23139617)" /><g
     id="Internet"
     transform="translate(-0.72597584,-0.23139617)" /><g
     id="Perpustakaan"
     transform="translate(-0.72597584,-0.23139617)" /><g
     id="Pojok_Edukasi"
     transform="translate(-0.72597584,-0.23139617)" /><g
     id="Rekrutmen"
     transform="translate(-0.72597584,-0.23139617)" /><g
     id="Whistel_Blower_miring"
     transform="translate(-0.72597584,-0.23139617)" /><g
     id="Whistel_Blower_lurus"
     transform="translate(-0.72597584,-0.23139617)" /><g
     id="Bendera_Amerika"
     transform="translate(-0.72597584,-0.23139617)" /><g
     id="Bendera_Indonesia"
     transform="translate(-0.72597584,-0.23139617)" /><g
     id="Logo_SKK_Migas"
     transform="translate(-0.72597584,-0.23139617)"><g
       id="g3348"><path
         d="m 88.852,73.433 c -0.331,0.263 -0.62,0.513 -0.93,0.736 -1.463,1.055 -3.11,1.36 -4.878,1.217 -1.196,-0.097 -2.331,-0.377 -3.365,-0.994 -1.606,-0.959 -2.47,-2.392 -2.696,-4.237 -0.187,-1.527 0.04,-2.973 0.834,-4.299 0.942,-1.573 2.387,-2.443 4.154,-2.768 1.621,-0.299 3.239,-0.248 4.807,0.326 0.771,0.282 1.447,0.711 1.917,1.411 0.019,0.028 0.042,0.054 0.069,0.075 0.015,0.012 0.041,0.011 0.086,0.022 0,-0.477 0.008,-0.948 -0.004,-1.418 -0.005,-0.207 0.024,-0.305 0.273,-0.3 0.888,0.017 1.777,0.013 2.665,0.002 0.222,-0.003 0.293,0.057 0.293,0.286 -0.006,3.908 0.022,7.815 -0.013,11.722 -0.024,2.618 -1.53,4.417 -4.123,5.073 -2.401,0.607 -4.798,0.536 -7.179,-0.085 -1.079,-0.282 -2.026,-0.809 -2.663,-1.777 -0.306,-0.466 -0.454,-0.986 -0.552,-1.527 -0.031,-0.171 0.015,-0.243 0.207,-0.241 0.98,0.008 1.96,0.004 2.939,0.002 0.111,0 0.195,0.014 0.231,0.144 0.277,1.017 1.068,1.405 2,1.55 1.116,0.173 2.243,0.196 3.358,-0.046 1.627,-0.353 2.512,-1.409 2.567,-3.067 0.019,-0.589 0.003,-1.177 0.003,-1.807 z M 84.61,72.947 c 0.295,-0.016 0.594,-0.011 0.885,-0.052 0.268,-0.038 0.535,-0.109 0.793,-0.192 2.284,-0.726 3.317,-3.527 2.03,-5.534 -0.587,-0.915 -1.487,-1.37 -2.517,-1.612 -1.4,-0.329 -2.733,-0.208 -3.957,0.6 -2.098,1.385 -2.113,4.641 -0.025,6.042 0.842,0.566 1.796,0.738 2.791,0.748 z"
         id="path3350"
         inkscape:connector-curvature="0"
         style="clip-rule:evenodd;fill:#787878;fill-rule:evenodd" /><path
         d="m 49.84,65.03 c 0.832,-0.879 1.768,-1.519 2.91,-1.826 1.496,-0.402 2.99,-0.414 4.455,0.138 0.773,0.292 1.36,0.818 1.731,1.564 0.097,0.195 0.144,0.282 0.327,0.059 1.11,-1.363 2.615,-1.911 4.312,-2.021 0.947,-0.061 1.884,0.018 2.787,0.351 1.485,0.549 2.309,1.624 2.547,3.174 0.056,0.361 0.071,0.723 0.071,1.088 -0.003,2.551 -0.006,5.102 0.004,7.654 0.001,0.27 -0.049,0.371 -0.346,0.364 -0.842,-0.021 -1.686,-0.018 -2.528,0 -0.263,0.005 -0.342,-0.055 -0.341,-0.335 0.013,-2.289 0.012,-4.579 0.003,-6.868 -0.001,-0.396 -0.018,-0.801 -0.095,-1.188 -0.166,-0.83 -0.676,-1.369 -1.5,-1.596 -1.04,-0.286 -2.062,-0.284 -3.052,0.201 -1.152,0.565 -1.692,1.527 -1.705,2.773 -0.024,2.221 -0.013,4.442 10e-4,6.663 0.002,0.292 -0.085,0.356 -0.361,0.35 -0.854,-0.018 -1.708,-0.015 -2.562,-0.001 -0.238,0.004 -0.303,-0.06 -0.302,-0.302 0.01,-2.414 0.009,-4.829 0.001,-7.243 -0.001,-0.305 -0.032,-0.616 -0.101,-0.912 -0.193,-0.813 -0.712,-1.319 -1.521,-1.536 -0.901,-0.242 -1.798,-0.266 -2.678,0.062 -1.36,0.507 -2.055,1.574 -2.057,3.133 -0.004,2.153 -0.006,4.305 0.006,6.458 0.001,0.266 -0.055,0.35 -0.333,0.343 -0.865,-0.019 -1.731,-0.015 -2.597,-0.002 -0.226,0.004 -0.284,-0.059 -0.283,-0.284 0.007,-3.907 0.007,-7.813 10e-4,-11.72 0,-0.221 0.03,-0.319 0.29,-0.313 0.876,0.018 1.754,0.015 2.631,0 0.228,-0.004 0.296,0.057 0.289,0.283 -0.015,0.497 -0.004,0.993 -0.004,1.489 z"
         id="path3352"
         inkscape:connector-curvature="0"
         style="clip-rule:evenodd;fill:#787878;fill-rule:evenodd" /><path
         d="m 107.958,69.435 c 0,1.048 0.008,2.095 -0.004,3.143 -0.006,0.536 0.2,0.928 0.857,0.839 0.078,-0.01 0.159,0.001 0.239,-0.002 0.657,-0.028 0.657,-0.028 0.657,0.647 0,0.444 -0.005,0.889 0.002,1.332 0.002,0.145 -0.024,0.227 -0.187,0.261 -1.006,0.208 -2.012,0.375 -3.04,0.146 -0.691,-0.154 -1.211,-0.501 -1.413,-1.222 -0.034,-0.122 -0.064,-0.247 -0.242,-0.094 -0.862,0.74 -1.897,1.111 -2.994,1.301 -1.715,0.298 -3.437,0.417 -5.124,-0.154 -2.327,-0.786 -3.28,-3.563 -1.896,-5.502 0.64,-0.897 1.591,-1.28 2.619,-1.524 1.222,-0.291 2.477,-0.321 3.717,-0.471 0.935,-0.114 1.878,-0.179 2.791,-0.429 0.954,-0.261 1.2,-1.185 0.519,-1.918 -0.456,-0.49 -1.066,-0.643 -1.688,-0.727 -0.959,-0.129 -1.924,-0.157 -2.879,0.055 -0.954,0.212 -1.689,0.671 -1.88,1.718 -0.025,0.138 -0.089,0.181 -0.23,0.18 -0.911,-0.006 -1.822,-0.005 -2.733,-10e-4 -0.172,10e-4 -0.194,-0.048 -0.169,-0.223 0.266,-1.913 1.539,-3.285 3.578,-3.717 2.232,-0.473 4.473,-0.429 6.685,0.141 1.011,0.261 1.918,0.722 2.441,1.705 0.285,0.535 0.376,1.115 0.375,1.713 -0.002,0.935 -0.001,1.869 -0.001,2.803 z m -3.209,0.917 c 0,-0.023 0,-0.045 0,-0.068 -0.004,-0.25 0.091,-0.593 -0.035,-0.727 -0.178,-0.187 -0.453,0.1 -0.698,0.131 -0.023,0.003 -0.046,0.003 -0.067,0.008 -1.227,0.311 -2.49,0.371 -3.736,0.543 -0.642,0.089 -1.282,0.19 -1.865,0.492 -0.34,0.177 -0.62,0.43 -0.718,0.821 -0.269,1.071 0.248,1.954 1.314,2.254 1.038,0.292 2.075,0.181 3.088,-0.094 1.585,-0.431 2.82,-1.446 2.717,-3.36 z"
         id="path3354"
         inkscape:connector-curvature="0"
         style="clip-rule:evenodd;fill:#787878;fill-rule:evenodd" /><path
         d="m 30.847,63.176 c -0.764,0.631 -1.463,1.211 -2.165,1.786 -1.11,0.908 -2.219,1.816 -3.337,2.713 -0.161,0.129 -0.145,0.189 -0.026,0.336 1.962,2.423 3.916,4.853 5.872,7.28 0.035,0.044 0.069,0.088 0.101,0.128 -0.045,0.123 -0.139,0.069 -0.207,0.069 -1.253,0.003 -2.505,-0.004 -3.758,0.008 -0.229,0.002 -0.374,-0.066 -0.514,-0.247 -1.313,-1.703 -2.638,-3.397 -3.949,-5.101 -0.16,-0.208 -0.246,-0.271 -0.477,-0.063 -0.489,0.442 -1.011,0.848 -1.533,1.252 -0.163,0.127 -0.219,0.259 -0.218,0.46 0.008,1.127 -0.002,2.255 0.008,3.382 0.002,0.223 -0.028,0.324 -0.291,0.319 -0.877,-0.018 -1.754,-0.014 -2.63,-0.001 -0.226,0.003 -0.286,-0.058 -0.286,-0.286 0.007,-5.432 0.007,-10.864 0,-16.297 0,-0.231 0.046,-0.313 0.296,-0.308 0.865,0.016 1.731,0.017 2.597,-0.001 0.267,-0.006 0.317,0.078 0.316,0.327 -0.008,2.938 -0.005,5.876 -0.004,8.815 0,0.085 -0.045,0.181 0.059,0.279 0.596,-0.517 1.193,-1.036 1.791,-1.554 1.213,-1.05 2.426,-2.1 3.64,-3.15 0.094,-0.081 0.184,-0.151 0.328,-0.151 1.429,0.008 2.86,0.005 4.387,0.005 z"
         id="path3356"
         inkscape:connector-curvature="0"
         style="clip-rule:evenodd;fill:#787878;fill-rule:evenodd" /><path
         d="m 45.856,75.571 c -1.357,0 -2.712,-0.005 -4.067,0.005 -0.198,0.002 -0.276,-0.113 -0.374,-0.24 -1.334,-1.715 -2.673,-3.427 -4.001,-5.147 -0.134,-0.173 -0.204,-0.21 -0.386,-0.054 -0.527,0.451 -1.071,0.884 -1.616,1.313 -0.151,0.119 -0.198,0.25 -0.196,0.437 0.008,1.127 -0.002,2.255 0.009,3.383 0.002,0.229 -0.041,0.314 -0.293,0.309 -0.877,-0.016 -1.754,-0.013 -2.631,-0.001 -0.223,0.003 -0.287,-0.054 -0.287,-0.283 0.007,-5.433 0.007,-10.866 -0.001,-16.3 0,-0.241 0.066,-0.307 0.305,-0.303 0.865,0.014 1.731,0.017 2.596,-0.002 0.271,-0.006 0.312,0.083 0.311,0.328 -0.009,2.905 -0.006,5.809 -0.006,8.713 0,0.12 0,0.24 0,0.436 0.661,-0.57 1.261,-1.085 1.859,-1.601 1.196,-1.035 2.394,-2.069 3.586,-3.109 0.154,-0.134 0.306,-0.197 0.517,-0.196 1.389,0.01 2.778,0.006 4.203,0.006 -0.108,0.194 -0.285,0.281 -0.425,0.396 -1.645,1.351 -3.293,2.699 -4.949,4.035 -0.209,0.169 -0.216,0.262 -0.048,0.469 1.951,2.403 3.892,4.814 5.834,7.223 0.034,0.043 0.094,0.073 0.06,0.183 z"
         id="path3358"
         inkscape:connector-curvature="0"
         style="clip-rule:evenodd;fill:#787878;fill-rule:evenodd" /><path
         d="m 3.485,71.627 c 0.501,-10e-4 1.002,0.001 1.504,-10e-4 0.132,-0.001 0.258,-0.005 0.278,0.17 0.124,1.043 0.848,1.533 1.751,1.759 1.313,0.329 2.639,0.302 3.923,-0.176 0.529,-0.197 0.974,-0.521 1.021,-1.156 C 11.997,71.757 11.796,71.41 11.371,71.201 10.698,70.871 9.966,70.768 9.239,70.644 7.696,70.381 6.122,70.285 4.613,69.83 3.922,69.621 3.263,69.344 2.79,68.763 2.213,68.054 2.107,67.215 2.186,66.347 c 0.17,-1.868 1.409,-2.784 3.055,-3.225 2.369,-0.635 4.748,-0.61 7.071,0.234 1.448,0.526 2.384,1.544 2.648,3.11 0.083,0.497 0.096,0.495 -0.406,0.495 -0.888,0 -1.776,0 -2.665,0.001 -0.124,0 -0.243,0.026 -0.282,-0.156 -0.216,-1.013 -0.952,-1.484 -1.872,-1.715 -1.054,-0.264 -2.114,-0.282 -3.161,0.068 -0.316,0.106 -0.593,0.276 -0.85,0.49 -0.525,0.438 -0.456,1.488 0.345,1.737 0.896,0.28 1.818,0.387 2.736,0.529 1.491,0.229 2.997,0.389 4.43,0.899 0.968,0.344 1.811,0.869 2.085,1.934 0.48,1.869 -0.221,3.702 -2.412,4.548 -1.593,0.615 -3.256,0.69 -4.935,0.643 C 6.682,75.902 5.414,75.723 4.223,75.192 3.018,74.655 2.167,73.807 1.846,72.477 1.639,71.622 1.612,71.629 2.495,71.628 2.824,71.627 3.154,71.627 3.485,71.627 Z"
         id="path3360"
         inkscape:connector-curvature="0"
         style="clip-rule:evenodd;fill:#787878;fill-rule:evenodd" /><path
         d="m 112.209,71.687 c 0.501,-10e-4 1.003,-0.003 1.504,0.001 0.102,10e-4 0.226,-0.049 0.254,0.136 0.186,1.243 1.101,1.687 2.172,1.883 1.095,0.201 2.197,0.158 3.273,-0.178 0.352,-0.11 0.678,-0.268 0.939,-0.533 0.521,-0.528 0.423,-1.35 -0.221,-1.71 -0.656,-0.366 -1.398,-0.452 -2.124,-0.576 -1.477,-0.252 -2.98,-0.357 -4.431,-0.752 -1.033,-0.281 -2.03,-0.671 -2.441,-1.768 -0.549,-1.462 -0.361,-3.449 1.549,-4.504 0.829,-0.458 1.728,-0.697 2.656,-0.81 1.476,-0.179 2.953,-0.162 4.413,0.145 1.023,0.215 1.985,0.575 2.773,1.301 0.731,0.674 1.086,1.523 1.172,2.499 0.013,0.144 -0.03,0.204 -0.186,0.203 -0.991,-0.005 -1.982,-0.003 -2.973,-0.002 -0.097,0 -0.181,-0.007 -0.205,-0.127 -0.198,-1.003 -0.906,-1.495 -1.816,-1.726 -1.177,-0.299 -2.364,-0.342 -3.505,0.163 -0.522,0.23 -0.978,0.618 -0.912,1.26 0.035,0.334 0.16,0.585 0.463,0.74 0.535,0.276 1.122,0.352 1.704,0.449 1.701,0.286 3.426,0.437 5.096,0.896 0.517,0.142 1.009,0.341 1.476,0.608 1.159,0.662 1.663,2.214 1.192,3.651 -0.467,1.427 -1.535,2.144 -2.867,2.578 -1.484,0.484 -3.017,0.515 -4.558,0.471 -1.4,-0.04 -2.762,-0.26 -4.018,-0.91 -1.25,-0.647 -1.98,-1.668 -2.108,-3.095 -0.023,-0.253 0.06,-0.308 0.295,-0.3 0.476,0.019 0.955,0.007 1.434,0.007 z"
         id="path3362"
         inkscape:connector-curvature="0"
         style="clip-rule:evenodd;fill:#787878;fill-rule:evenodd" /><path
         d="m 74.876,69.419 c 0,1.935 -0.008,3.869 0.008,5.804 0.002,0.296 -0.086,0.355 -0.362,0.35 -0.853,-0.018 -1.707,-0.012 -2.561,-0.002 -0.219,0.003 -0.315,-0.027 -0.315,-0.289 0.01,-3.903 0.009,-7.807 0,-11.711 -0.001,-0.261 0.073,-0.322 0.325,-0.317 0.865,0.016 1.73,0.018 2.595,-10e-4 0.266,-0.005 0.317,0.081 0.315,0.328 -0.009,1.945 -0.005,3.891 -0.005,5.838 z"
         id="path3364"
         inkscape:connector-curvature="0"
         style="clip-rule:evenodd;fill:#787878;fill-rule:evenodd" /><g
         id="g3366"><path
           d="M 52.092,56.539 C 50.245,56.623 48.09,56.104 46.053,55.085 44.981,54.549 44,53.875 43.112,53.058 41.935,51.974 40.968,50.737 40.256,49.306 39.462,47.708 39.035,46.019 38.954,44.23 c -0.124,-2.751 0.595,-5.259 2.104,-7.543 1.085,-1.64 2.52,-2.916 4.194,-3.942 1.648,-1.01 3.174,-2.172 4.362,-3.726 0.793,-1.038 1.326,-2.193 1.604,-3.469 0.021,-0.094 -0.014,-0.271 0.142,-0.265 0.114,0.004 0.099,0.158 0.132,0.252 0.539,1.502 1.406,2.794 2.518,3.931 1.352,1.382 2.958,2.409 4.634,3.341 2.541,1.412 4.57,3.333 5.83,5.987 0.58,1.22 0.916,2.518 1.02,3.868 0.249,3.235 -0.632,6.138 -2.602,8.706 -1.415,1.845 -3.215,3.204 -5.355,4.109 -1.598,0.674 -3.263,1.037 -5.445,1.06 z m 0.563,-17.457 c -1.324,-0.012 -2.181,0.239 -2.981,0.719 -1.605,0.963 -2.517,2.982 -2.122,4.736 0.654,2.908 3.771,4.516 6.532,3.375 2.195,-0.906 3.293,-3.047 2.831,-5.166 -0.477,-2.183 -2.392,-3.667 -4.26,-3.664 z"
           id="path3368"
           inkscape:connector-curvature="0"
           style="clip-rule:evenodd;fill:#bed630;fill-rule:evenodd" /><path
           d="m 74.396,32.945 c -1.31,0.748 -2.498,1.655 -3.562,2.728 -1.299,1.311 -2.224,2.843 -2.743,4.616 -0.022,0.075 -0.026,0.179 -0.125,0.176 -0.109,-0.004 -0.085,-0.113 -0.099,-0.187 -0.208,-1.086 -0.525,-2.134 -1.002,-3.137 -0.962,-2.022 -2.434,-3.599 -4.195,-4.941 -1.122,-0.855 -2.394,-1.459 -3.594,-2.184 -2.332,-1.409 -4.086,-3.35 -5.301,-5.788 -1.358,-2.727 -1.801,-5.615 -1.486,-8.621 0.277,-2.651 1.204,-5.075 2.725,-7.268 0.071,-0.102 0.131,-0.212 0.197,-0.319 l -0.01,-0.024 c 0.101,-0.021 0.133,-0.114 0.187,-0.184 0.691,-0.888 1.456,-1.703 2.3,-2.45 0.81,-0.716 1.709,-1.304 2.608,-1.895 0.025,-0.012 0.049,-0.025 0.074,-0.037 0.137,-0.075 0.273,-0.151 0.409,-0.226 0.936,-0.413 1.85,-0.872 2.835,-1.171 1.42,-0.43 2.865,-0.701 4.35,-0.777 3.735,-0.19 7.181,0.719 10.291,2.777 3.433,2.273 5.734,5.398 6.81,9.401 0.345,1.284 0.511,2.592 0.507,3.911 -0.007,2.252 -0.443,4.425 -1.383,6.485 -0.028,0.061 -0.042,0.129 -0.063,0.194 -0.159,0.298 -0.312,0.599 -0.479,0.893 -0.294,0.518 -0.598,1.03 -0.898,1.545 l -0.004,0.01 c -0.584,0.689 -1.169,1.378 -1.754,2.068 l 0.003,-0.002 c -0.423,0.37 -0.866,0.718 -1.247,1.134 0,0 -0.014,0.008 -0.013,0.008 -0.149,0.041 -0.256,0.132 -0.328,0.268 l -0.013,0.007 c -0.282,0.132 -0.523,0.319 -0.738,0.542 l -0.013,0.005 c -1.01,0.622 -2.061,1.17 -3.099,1.743 -0.273,0.151 -0.569,0.268 -0.786,0.507 l -0.012,0.002 c -0.14,0.018 -0.263,0.063 -0.329,0.201 l -0.02,-0.01 z M 74.78,17.402 c 0.032,-0.961 -0.21,-1.827 -0.645,-2.645 -1.454,-2.736 -5.083,-3.952 -8.06,-2.377 -2.902,1.535 -4.088,5.062 -2.192,8.01 1.309,2.037 3.967,3.154 6.505,2.486 2.457,-0.647 4.431,-2.925 4.392,-5.474 z"
           id="path3370"
           inkscape:connector-curvature="0"
           style="clip-rule:evenodd;fill:#ea292b;fill-rule:evenodd" /></g></g><g
       id="g3372" /></g></svg>